<svg id="Capa_1" data-name="Capa 1" xmlns="http://www.w3.org/2000/svg" xmlns:xlink="http://www.w3.org/1999/xlink" viewBox="0 0 826.46 376.46"><defs><style>.cls-1{fill:#76b82a;}.cls-2{fill:url(#Degradado_sin_nombre_27);}.cls-3{fill:#161616;}</style><radialGradient id="Degradado_sin_nombre_27" cx="-31.33" cy="453.21" r="137.91" gradientTransform="translate(149.68 -288.98) scale(0.95)" gradientUnits="userSpaceOnUse"><stop offset="0" stop-color="#c8d423"/><stop offset="0.2" stop-color="#bfd124"/><stop offset="0.51" stop-color="#a7c926"/><stop offset="0.91" stop-color="#7fbb29"/><stop offset="1" stop-color="#76b82a"/></radialGradient></defs><path class="cls-1" d="M172.55,300.42H67.37a14.26,14.26,0,1,0,0,28.51H172.55a14.26,14.26,0,1,0,0-28.51Z"/><path class="cls-1" d="M154.3,347.91H85.68a14.28,14.28,0,1,0,0,28.55H154.3a14.28,14.28,0,1,0,0-28.55Z"/><path class="cls-2" d="M120,0A120,120,0,0,0,0,120c0,38,26.8,71,26.8,71,10.1,12.47,18.38,35.85,18.38,51.91v9.31A29.31,29.31,0,0,0,74.4,281.44h88.85a29.33,29.33,0,0,0,29.25-29.22v-7.59c0-16,8.45-39.26,18.77-51.57,0,0,28.67-34.09,28.67-73.09A120,120,0,0,0,120,0Z"/><path class="cls-3" d="M284.14,206.86a15.78,15.78,0,0,1-.86,5.24,12.9,12.9,0,0,1-2.45,4.28,11.48,11.48,0,0,1-3.83,2.88,11.25,11.25,0,0,1-4.83,1.05h-27.5a12.39,12.39,0,0,1-5.61-1.69,18,18,0,0,1-5.51-4.48,9.1,9.1,0,0,1-2.3-5.85V189.1a9.11,9.11,0,0,1,1.81-5,15.66,15.66,0,0,1,4.74-4.52,11.21,11.21,0,0,1,6-1.82h34a5,5,0,0,1,5,5h0a5,5,0,0,1-5,5H250.76a6.86,6.86,0,0,0-2.9.61,7.83,7.83,0,0,0-3.1,2.51,4.76,4.76,0,0,0-1,2.79V203a7.42,7.42,0,0,0,1,3.85,6.48,6.48,0,0,0,2.67,2.52,8.13,8.13,0,0,0,3.83.88h16.31a4.75,4.75,0,0,0,2.9-.88,2.8,2.8,0,0,0,1.2-2.39,2.72,2.72,0,0,0-1-2.29,3.51,3.51,0,0,0-2.17-.77h-12V194h15.19l2.35.48a15.56,15.56,0,0,1,4.45,1.74,11.29,11.29,0,0,1,4,3.92A12.32,12.32,0,0,1,284.14,206.86Z"/><path class="cls-3" d="M350.9,220.31H338.31a104.69,104.69,0,0,0-2.73-12c-.88-2.75-2.07-4.13-3.6-4.13h-27.8v16.15H292V194.36H329.9a4.54,4.54,0,0,0,2.82-.94A2.87,2.87,0,0,0,334,191a3.16,3.16,0,0,0-.41-1.38,3.78,3.78,0,0,0-1.27-1.35,3.84,3.84,0,0,0-2.15-.56h-33.2a5,5,0,0,1-5-5h0a5,5,0,0,1,5-5h41.61q4.21,0,6.08,2.36a8.63,8.63,0,0,1,1.87,5.52v8.61a6.67,6.67,0,0,1-.93,3.94,12,12,0,0,1-3.82,2.84,27.23,27.23,0,0,1,2.66,1.57,9.32,9.32,0,0,1,1.95,2.41,23.89,23.89,0,0,1,2.28,5.46A85.67,85.67,0,0,1,350.9,220.31Z"/><path class="cls-3" d="M410.23,208.7a9.82,9.82,0,0,1-1.67,4.93,16.93,16.93,0,0,1-4.24,4.72,8.27,8.27,0,0,1-5,2h-30a11.74,11.74,0,0,1-6.72-2.1,15.49,15.49,0,0,1-4.89-5.33,12.9,12.9,0,0,1-1.78-6.26V177.73h12.06v25.75a5.54,5.54,0,0,0,1,3.22,8,8,0,0,0,2.41,2.31,4.77,4.77,0,0,0,2.45.85h18.44a4.1,4.1,0,0,0,2.45-1,9,9,0,0,0,2.15-2.38,4.75,4.75,0,0,0,.86-2.36v-26.4h12.53Z"/><path class="cls-3" d="M472.27,195.87a10.24,10.24,0,0,1-1.72,6q-1.73,2.47-5.76,2.47H430v15.94H417.72V194.09h39.79a2.17,2.17,0,0,0,1.6-.92,3,3,0,0,0,.81-2,2.69,2.69,0,0,0-.67-1.84,4.07,4.07,0,0,0-1.8-1.1,7.35,7.35,0,0,0-2.26-.35H422.76a5,5,0,0,1-5-5.05h0a5,5,0,0,1,5-5.05h40.87c3.19,0,5.42.77,6.71,2.31a8.84,8.84,0,0,1,1.93,5.86Z"/><path class="cls-3" d="M535.53,207.37a11.49,11.49,0,0,1-2,6.5,15.52,15.52,0,0,1-4.81,4.71,9.89,9.89,0,0,1-5,1.73H491a12.53,12.53,0,0,1-7.16-2.1,14.49,14.49,0,0,1-4.79-5.26,12.83,12.83,0,0,1-1.68-6v-16a11.47,11.47,0,0,1,1.14-5,15.48,15.48,0,0,1,7.1-7.14,9.63,9.63,0,0,1,4.23-1.07h32.22a13.63,13.63,0,0,1,5.35,1.42,14.73,14.73,0,0,1,5.64,4.64,13.16,13.16,0,0,1,2.47,8.25Zm-12.24-4v-8.75a6.48,6.48,0,0,0-1.87-4.69c-1.25-1.28-3.22-1.93-5.91-1.93H496.65a6.33,6.33,0,0,0-2.72.83,9.86,9.86,0,0,0-2.82,2.2,4.34,4.34,0,0,0-1.2,2.9v8.34a8.34,8.34,0,0,0,1.62,5,5.49,5.49,0,0,0,4.65,2.05h21a6.87,6.87,0,0,0,4.34-1.38Q523.3,206.6,523.29,203.37Z"/><path class="cls-3" d="M243.43,317.45h0a12.18,12.18,0,0,1-12.18-12.18V245a12.18,12.18,0,0,1,12.18-12.18h0A12.18,12.18,0,0,1,255.61,245v60.3A12.19,12.19,0,0,1,243.43,317.45Z"/><path class="cls-3" d="M413,317.45H388.56V264.89a3,3,0,0,0-1.09-2.28,3.18,3.18,0,0,0-2-1,3.74,3.74,0,0,0-3.67,2.3l-29.38,53.51H329.21l-30.27-53.74a3.68,3.68,0,0,0-1-1.78,5.55,5.55,0,0,0-1.62-1.15,3.7,3.7,0,0,0-1.33-.38,2.5,2.5,0,0,0-2,1.18,4.1,4.1,0,0,0-.89,2.48v53.39h-24V252.18a17.11,17.11,0,0,1,2.31-8.72,22.77,22.77,0,0,1,5.79-6.71,29.15,29.15,0,0,1,7.39-4.23,19.41,19.41,0,0,1,6.8-1.5q8.26,0,13.86,4.22t11.68,14.52l24.23,43.68,24.95-43.8q4.85-9.1,10.58-13.87A21.51,21.51,0,0,1,389.86,231a22.45,22.45,0,0,1,9.31,1.95,23.25,23.25,0,0,1,7.48,5.26,23.49,23.49,0,0,1,4.76,7.27,20.25,20.25,0,0,1,1.63,7.68Z"/><path class="cls-3" d="M535.53,268.91a20.46,20.46,0,0,1-3.43,12q-3.44,4.9-11.47,4.91H451.28v31.74H426.93v-52.2h79.22a4.42,4.42,0,0,0,3.19-1.83,6.07,6.07,0,0,0,1.59-4.08,5.24,5.24,0,0,0-1.33-3.66A7.8,7.8,0,0,0,506,253.6a15,15,0,0,0-4.5-.71H437a10.05,10.05,0,0,1-10.05-10h0A10.05,10.05,0,0,1,437,232.79h81.34q9.52,0,13.36,4.61a17.54,17.54,0,0,1,3.85,11.65Z"/><path class="cls-3" d="M665.47,317.56H640.4A207,207,0,0,0,635,293.64q-2.6-8.24-7.15-8.24H572.47v32.16H548.12V265.89h75.1a10.24,10.24,0,0,0,5.52-1.48,5.91,5.91,0,0,0,3-5.2,6.08,6.08,0,0,0-.83-2.74,7.37,7.37,0,0,0-2.51-2.69,7.56,7.56,0,0,0-4.29-1.13H558.05a9.92,9.92,0,0,1-9.93-9.93h0a9.93,9.93,0,0,1,9.93-9.93h82.82q8.4,0,12.12,4.7a17.21,17.21,0,0,1,3.73,11v17.16q0,5.33-1.87,7.84t-7.59,5.65a55.19,55.19,0,0,1,5.29,3.13,18.08,18.08,0,0,1,3.87,4.78A47.88,47.88,0,0,1,661,297.9,171,171,0,0,1,665.47,317.56Z"/><path class="cls-3" d="M815.83,255.69H788.22a23.31,23.31,0,0,0-4.45-10.84,29.36,29.36,0,0,0-11.24-9.23c-4.21-1.89-7.77-2.83-10.65-2.83H697.75a19.18,19.18,0,0,0-8.42,2.13,30.5,30.5,0,0,0-8.14,5.79,29.59,29.59,0,0,0-6,8.42,22.61,22.61,0,0,0-2.28,9.95V290.9a25.55,25.55,0,0,0,3.34,12,29.05,29.05,0,0,0,9.54,10.46,24.91,24.91,0,0,0,14.26,4.19h65.14q4.32,0,10-3.46a30.58,30.58,0,0,0,9.56-9.37,22.67,22.67,0,0,0,3.88-11.87h27.22a10.61,10.61,0,0,0,10.63-10.63V266.35A10.64,10.64,0,0,0,815.83,255.69Zm-51.51,28.14c0,4.29-1.19,7.34-3.56,9.18a13.71,13.71,0,0,1-8.62,2.74H710.35q-6.18,0-9.25-4.07a16.66,16.66,0,0,1-3.25-10.05V265a8.67,8.67,0,0,1,2.4-5.79,19.69,19.69,0,0,1,5.62-4.35,12.58,12.58,0,0,1,5.42-1.65h37.53q8,0,11.77,3.82a13,13,0,0,1,3.73,9.33Z"/><path class="cls-3" d="M563,219.92l-4.49-6.5h-5v6.5h-5.39V196.61H558.2c6.23,0,10.12,3.23,10.12,8.46a7.58,7.58,0,0,1-4.79,7.36l5.23,7.49ZM557.9,201h-4.39v8.12h4.39c3.3,0,5-1.53,5-4.06S561.2,201,557.9,201Z"/><path class="cls-3" d="M572.59,196.61H578v23.31h-5.39Z"/><path class="cls-3" d="M587.57,200.94v6.16h10.78v4.33H587.57v8.49h-5.4V196.61h17.61v4.33Z"/><path class="cls-3" d="M601.81,205a3.23,3.23,0,0,1,6.46,0,3.23,3.23,0,1,1-6.46,0Zm0,11.95a3.23,3.23,0,0,1,6.46,0,3.23,3.23,0,1,1-6.46,0Z"/><path class="cls-3" d="M618.29,216.92l3-3.6c1.26,1.7,2.66,2.57,4.33,2.57,2.16,0,3.29-1.3,3.29-3.86V200.94h-8.19v-4.33h13.55v15.12c0,5.76-2.89,8.58-8.39,8.58A9.36,9.36,0,0,1,618.29,216.92Z"/><path class="cls-3" d="M638.9,206h9.42v4.16H638.9Z"/><path class="cls-3" d="M669.26,212.59c0,4.13-3,7.72-9.69,7.72a16.1,16.1,0,0,1-8.89-2.49l2.13-4.13a11.26,11.26,0,0,0,6.63,2.1c2.7,0,4.36-1.13,4.36-3s-1.2-3-5.43-3h-6l1.2-13.12h14.22v4.33h-9.72l-.37,4.43h1.9C666.53,205.37,669.26,208.46,669.26,212.59Z"/><path class="cls-3" d="M671.46,208.26c0-7.69,4.26-12,10-12s10,4.36,10,12-4.23,12.05-10,12.05S671.46,216,671.46,208.26Zm14.54,0c0-5.29-1.86-7.49-4.56-7.49s-4.52,2.2-4.52,7.49,1.86,7.49,4.52,7.49S686,213.56,686,208.26Z"/><path class="cls-3" d="M711.27,215.52v4.4H693.66v-3.5l9-8.49c2.06-2,2.43-3.16,2.43-4.29,0-1.83-1.26-2.9-3.73-2.9a5.72,5.72,0,0,0-4.83,2.33l-3.92-2.53c1.79-2.63,5.06-4.33,9.25-4.33,5.19,0,8.66,2.67,8.66,6.89,0,2.27-.64,4.33-3.9,7.36l-5.36,5.06Z"/><path class="cls-3" d="M733,213.16c0,4.39-3.93,7.15-9.85,7.15s-9.79-2.76-9.79-7.15a5.92,5.92,0,0,1,3.53-5.49,5.4,5.4,0,0,1-2.7-4.8c0-4.09,3.66-6.66,9-6.66s9,2.57,9,6.66a5.43,5.43,0,0,1-2.73,4.8A5.9,5.9,0,0,1,733,213.16Zm-5.46-.17c0-2.06-1.7-3.33-4.39-3.33s-4.33,1.27-4.33,3.33,1.66,3.36,4.33,3.36S727.55,215.06,727.55,213Zm-8-9.89c0,1.77,1.4,2.87,3.6,2.87s3.66-1.1,3.66-2.87-1.47-2.92-3.66-2.92S719.56,201.27,719.56,203.1Z"/><path class="cls-3" d="M752.68,212.79c0,3.93-3,7.52-9.65,7.52a16,16,0,0,1-8.89-2.49l2.1-4.13a11.33,11.33,0,0,0,6.66,2.1c2.69,0,4.36-1.1,4.36-3s-1.3-2.86-4.36-2.86h-2.47v-3.56l4.8-5.43h-9.92v-4.33h16.31v3.5l-5.26,6C750.55,206.77,752.68,209.36,752.68,212.79Z"/><path class="cls-3" d="M764.17,196.61v23.31h-5.39v-19h-4.66v-4.33Z"/><path class="cls-3" d="M785.84,212.59c0,4.13-3,7.72-9.68,7.72a16.08,16.08,0,0,1-8.89-2.49l2.13-4.13a11.2,11.2,0,0,0,6.62,2.1c2.7,0,4.36-1.13,4.36-3s-1.2-3-5.42-3h-6l1.2-13.12h14.21v4.33h-9.72l-.37,4.43h1.9C783.11,205.37,785.84,208.46,785.84,212.59Z"/><path class="cls-3" d="M806.65,207.76c0,8.06-4.83,12.55-11.89,12.55a12.45,12.45,0,0,1-6.45-1.59l2-4a7.6,7.6,0,0,0,4.36,1.16c3.87,0,6.4-2.3,6.56-6.79a8,8,0,0,1-5.79,2.1c-4.49,0-8-2.87-8-7.26,0-4.76,3.89-7.76,8.82-7.76C802.69,196.21,806.65,200.24,806.65,207.76Zm-6-4.06c0-2-1.49-3.46-4.06-3.46-2.3,0-3.89,1.33-3.89,3.46s1.56,3.5,4,3.5S800.62,205.73,800.62,203.7Z"/><path class="cls-3" d="M826.46,215.52v4.4H808.85v-3.5l9-8.49c2.07-2,2.43-3.16,2.43-4.29,0-1.83-1.26-2.9-3.72-2.9a5.71,5.71,0,0,0-4.83,2.33l-3.93-2.53c1.8-2.63,5.06-4.33,9.26-4.33,5.19,0,8.65,2.67,8.65,6.89,0,2.27-.63,4.33-3.89,7.36l-5.36,5.06Z"/><path class="cls-3" d="M270.48,345.6c0,10.31-7.64,16.67-20,16.67H240v13.52h-8.7V328.93h19.28C262.84,328.93,270.48,335.23,270.48,345.6Zm-8.77,0c0-5.89-3.95-9.3-11.58-9.3H240v18.61h10.18C257.76,354.91,261.71,351.49,261.71,345.6Z"/><path class="cls-3" d="M277.45,355.37V328.93h8.7V355c0,9.64,4.35,13.79,11.92,13.79s11.84-4.15,11.84-13.79V328.93h8.57v26.44c0,13.66-7.7,21.09-20.48,21.09S277.45,369,277.45,355.37Z"/><path class="cls-3" d="M371,363.07c0,8-6.29,12.72-18.34,12.72H329.34V328.93h22c11.24,0,17.26,4.76,17.26,12.19a11.25,11.25,0,0,1-6,10.31A11.52,11.52,0,0,1,371,363.07ZM338,335.76v12.92h12.32c6,0,9.44-2.14,9.44-6.43s-3.42-6.49-9.44-6.49Zm24.17,26.44c0-4.68-3.55-6.76-10.11-6.76H338V369H352.1C358.66,369,362.21,366.89,362.21,362.2Z"/><path class="cls-3" d="M382.77,328.93h8.7v39.5H416v7.36h-33.2Z"/><path class="cls-3" d="M422.88,328.93h8.7v46.86h-8.7Z"/><path class="cls-3" d="M440.89,352.36c0-14,10.71-24.1,25.1-24.1,7.63,0,14.19,2.75,18.54,7.84l-5.62,5.28a16.46,16.46,0,0,0-12.52-5.49c-9.7,0-16.73,6.83-16.73,16.47s7,16.47,16.73,16.47a16.28,16.28,0,0,0,12.52-5.56l5.62,5.36c-4.35,5.08-10.91,7.83-18.61,7.83C451.6,376.46,440.89,366.35,440.89,352.36Z"/><path class="cls-3" d="M492.91,328.93h8.7v46.86h-8.7Z"/><path class="cls-3" d="M514.27,328.93h20.48c15.2,0,25.57,9.37,25.57,23.43S550,375.79,534.75,375.79H514.27Zm20.08,39.5c10.44,0,17.2-6.36,17.2-16.07s-6.76-16.06-17.2-16.06H523v32.13Z"/><path class="cls-3" d="M599.29,365H575.87l-4.62,10.84h-9l21.08-46.86h8.57l21.15,46.86H604Zm-2.87-6.83-8.84-20.48-8.77,20.48Z"/><path class="cls-3" d="M619.41,328.93h20.48c15.2,0,25.58,9.37,25.58,23.43s-10.38,23.43-25.58,23.43H619.41Zm20.08,39.5c10.45,0,17.21-6.36,17.21-16.07s-6.76-16.06-17.21-16.06H628.11v32.13Z"/><path class="cls-3" d="M695.33,352.36c0-14,10.71-24.1,25.1-24.1,7.63,0,14.19,2.75,18.54,7.84l-5.62,5.28a16.46,16.46,0,0,0-12.52-5.49c-9.7,0-16.73,6.83-16.73,16.47s7,16.47,16.73,16.47a16.28,16.28,0,0,0,12.52-5.56l5.62,5.36c-4.35,5.09-10.91,7.83-18.61,7.83C706,376.46,695.33,366.35,695.33,352.36Z"/><path class="cls-3" d="M744.59,370.7a5.49,5.49,0,1,1,11,0,5.49,5.49,0,1,1-11,0Z"/><path class="cls-3" d="M797.14,365H773.71l-4.62,10.84h-9l21.09-46.86h8.57l21.15,46.86h-9.1Zm-2.88-6.83-8.84-20.48-8.77,20.48Z"/><path class="cls-3" d="M815.48,370.7a5.49,5.49,0,1,1,11,0,5.49,5.49,0,1,1-11,0Z"/></svg>